<svg width="20" height="20" viewBox="0 0 20 20" fill="none" xmlns="http://www.w3.org/2000/svg">
<path d="M10 19.625C15.3157 19.625 19.625 15.3157 19.625 10C19.625 4.68426 15.3157 0.375 10 0.375C4.68426 0.375 0.375 4.68426 0.375 10C0.375 15.3157 4.68426 19.625 10 19.625Z" fill="url(#paint0_linear_51_15)"/>
<path d="M14.8033 6.01855C14.8889 5.46478 14.3625 5.02769 13.8701 5.24387L4.06331 9.54955C3.71022 9.70458 3.73605 10.2395 4.10226 10.3561L6.12463 11.0001C6.51066 11.123 6.92859 11.0594 7.26567 10.8266L11.8253 7.67646C11.9628 7.58144 12.1127 7.77697 11.9952 7.89804L8.71307 11.2819C8.39469 11.6102 8.45787 12.1664 8.84087 12.4066L12.5156 14.711C12.9277 14.9694 13.4579 14.7098 13.535 14.2117L14.8033 6.01855Z" fill="white"/>
<defs>
<linearGradient id="paint0_linear_51_15" x1="10" y1="0.375" x2="10" y2="19.625" gradientUnits="userSpaceOnUse">
<stop stop-color="#37BBFE"/>
<stop offset="1" stop-color="#007DBB"/>
</linearGradient>
</defs>
</svg>
