<svg width="35" height="35" viewBox="0 0 35 35" fill="none" xmlns="http://www.w3.org/2000/svg">
<g clip-path="url(#clip0_2_266)">
<path d="M25.1562 28.4375C24.8662 28.4375 24.588 28.5527 24.3828 28.7579C24.1777 28.963 24.0625 29.2412 24.0625 29.5312V32.8125H2.1875V6.5625H6.5625V7.65625C6.5625 7.94633 6.67773 8.22453 6.88285 8.42965C7.08797 8.63477 7.36617 8.75 7.65625 8.75H18.5937C18.8838 8.75 19.162 8.63477 19.3671 8.42965C19.5723 8.22453 19.6875 7.94633 19.6875 7.65625V6.5625H24.0625V7.65625C24.0625 7.94633 24.1777 8.22453 24.3828 8.42965C24.588 8.63477 24.8662 8.75 25.1562 8.75C25.4463 8.75 25.7245 8.63477 25.9296 8.42965C26.1348 8.22453 26.25 7.94633 26.25 7.65625V5.46875C26.25 5.17867 26.1348 4.90047 25.9296 4.69535C25.7245 4.49023 25.4463 4.375 25.1562 4.375H19.6875V3.28125C19.6875 2.41101 19.3418 1.57641 18.7264 0.961058C18.1111 0.345704 17.2765 0 16.4062 0H9.84375C8.97351 0 8.13891 0.345704 7.52355 0.961058C6.9082 1.57641 6.5625 2.41101 6.5625 3.28125V4.375H1.09375C0.803669 4.375 0.525469 4.49023 0.320351 4.69535C0.115233 4.90047 0 5.17867 0 5.46875V33.9062C0 34.1963 0.115233 34.4745 0.320351 34.6796C0.525469 34.8848 0.803669 35 1.09375 35H25.1562C25.4463 35 25.7245 34.8848 25.9296 34.6796C26.1348 34.4745 26.25 34.1963 26.25 33.9062V29.5312C26.25 29.2412 26.1348 28.963 25.9296 28.7579C25.7245 28.5527 25.4463 28.4375 25.1562 28.4375ZM8.75 3.28125C8.75 2.99117 8.86523 2.71297 9.07035 2.50785C9.27547 2.30273 9.55367 2.1875 9.84375 2.1875H16.4062C16.6963 2.1875 16.9745 2.30273 17.1796 2.50785C17.3848 2.71297 17.5 2.99117 17.5 3.28125V6.5625H8.75V3.28125ZM34.6806 13.4444L30.3056 9.06938C30.204 8.96752 30.0833 8.88671 29.9504 8.83157C29.8176 8.77643 29.6751 8.74804 29.5312 8.74804C29.3874 8.74804 29.2449 8.77643 29.112 8.83157C28.9792 8.88671 28.8585 8.96752 28.7569 9.06938L15.6319 22.1944C15.5304 22.2961 15.4499 22.4169 15.3951 22.5498C15.3403 22.6826 15.3122 22.825 15.3125 22.9688V27.3438C15.3125 27.6338 15.4277 27.912 15.6328 28.1171C15.838 28.3223 16.1162 28.4375 16.4062 28.4375H20.7812C20.925 28.4378 21.0674 28.4097 21.2002 28.3549C21.3331 28.3001 21.4539 28.2196 21.5556 28.1181L34.6806 14.9931C34.7825 14.8915 34.8633 14.7708 34.9184 14.638C34.9736 14.5051 35.0019 14.3626 35.0019 14.2188C35.0019 14.0749 34.9736 13.9324 34.9184 13.7995C34.8633 13.6667 34.7825 13.546 34.6806 13.4444ZM17.5 26.25V23.4216L29.5312 11.3903L32.3597 14.2188L20.3284 26.25H17.5ZM13.125 27.3438C13.125 27.6338 13.0098 27.912 12.8046 28.1171C12.5995 28.3223 12.3213 28.4375 12.0312 28.4375H7.65625C7.36617 28.4375 7.08797 28.3223 6.88285 28.1171C6.67773 27.912 6.5625 27.6338 6.5625 27.3438C6.5625 27.0537 6.67773 26.7755 6.88285 26.5704C7.08797 26.3652 7.36617 26.25 7.65625 26.25H12.0312C12.3213 26.25 12.5995 26.3652 12.8046 26.5704C13.0098 26.7755 13.125 27.0537 13.125 27.3438ZM13.125 20.7812C13.125 21.0713 13.0098 21.3495 12.8046 21.5546C12.5995 21.7598 12.3213 21.875 12.0312 21.875H7.65625C7.36617 21.875 7.08797 21.7598 6.88285 21.5546C6.67773 21.3495 6.5625 21.0713 6.5625 20.7812C6.5625 20.4912 6.67773 20.213 6.88285 20.0079C7.08797 19.8027 7.36617 19.6875 7.65625 19.6875H12.0312C12.3213 19.6875 12.5995 19.8027 12.8046 20.0079C13.0098 20.213 13.125 20.4912 13.125 20.7812ZM18.5937 15.3125H7.65625C7.36617 15.3125 7.08797 15.1973 6.88285 14.9921C6.67773 14.787 6.5625 14.5088 6.5625 14.2188C6.5625 13.9287 6.67773 13.6505 6.88285 13.4454C7.08797 13.2402 7.36617 13.125 7.65625 13.125H18.5937C18.8838 13.125 19.162 13.2402 19.3671 13.4454C19.5723 13.6505 19.6875 13.9287 19.6875 14.2188C19.6875 14.5088 19.5723 14.787 19.3671 14.9921C19.162 15.1973 18.8838 15.3125 18.5937 15.3125Z" fill="#435EBE"/>
</g>
<defs>
<clipPath id="clip0_2_266">
<rect width="35" height="35" fill="white"/>
</clipPath>
</defs>
</svg>
