<svg width="39" height="39" viewBox="0 0 39 39" fill="none" xmlns="http://www.w3.org/2000/svg">
<path d="M35.9422 19.5536C35.944 19.5347 35.9531 19.5189 35.9531 19.5C35.9531 17.7535 35.5942 2.4375 23.1562 2.4375H15.8438C7.71103 2.4375 3.04688 8.65678 3.04688 19.5C3.04688 19.5189 3.05602 19.5347 3.05784 19.5536C1.326 19.8406 0 21.3446 0 23.1562V29.25C0 31.2664 1.63983 32.9062 3.65625 32.9062V35.9531C3.65625 36.2901 3.92864 36.5625 4.26562 36.5625H9.14062C9.47761 36.5625 9.75 36.2901 9.75 35.9531V32.9062H29.25V35.9531C29.25 36.2901 29.5224 36.5625 29.8594 36.5625H34.7344C35.0714 36.5625 35.3438 36.2901 35.3438 35.9531V32.9062C37.3602 32.9062 39 31.2664 39 29.25V23.1562C39 21.3446 37.674 19.8406 35.9422 19.5536ZM15.8438 3.65625H23.1562C34.4096 3.65625 34.7344 17.8785 34.7344 19.5H33.5156C33.5156 18.0034 33.2079 4.875 22.5469 4.875H16.4531C9.38011 4.875 5.48438 10.0687 5.48438 19.5H4.26562C4.26562 5.71472 11.5196 3.65625 15.8438 3.65625ZM14.625 14.625C11.9328 14.625 9.75 16.8078 9.75 19.5H6.70312C6.70312 8.41913 12.0053 6.09375 16.4531 6.09375H22.5469C26.4103 6.09375 29.1945 8.01937 30.8228 11.8182C32.1902 15.0101 32.2969 18.5049 32.2969 19.5H19.5C19.5 16.8078 17.3172 14.625 14.625 14.625ZM18.2812 19.5H10.9688C10.9688 17.4811 12.6061 15.8438 14.625 15.8438C16.6439 15.8438 18.2812 17.4811 18.2812 19.5ZM8.53125 35.3438H4.875V32.9062H8.53125V35.3438ZM34.125 35.3438H30.4688V32.9062H34.125V35.3438ZM37.7812 29.25C37.7812 30.5943 36.688 31.6875 35.3438 31.6875H3.65625C2.31197 31.6875 1.21875 30.5943 1.21875 29.25V23.1562C1.21875 21.812 2.31197 20.7188 3.65625 20.7188H35.3438C36.688 20.7188 37.7812 21.812 37.7812 23.1562V29.25Z" fill="#435EBE"/>
<path d="M6.70312 23.7656C5.35884 23.7656 4.26562 24.8588 4.26562 26.2031C4.26562 27.5474 5.35884 28.6406 6.70312 28.6406C8.04741 28.6406 9.14062 27.5474 9.14062 26.2031C9.14062 24.8588 8.04741 23.7656 6.70312 23.7656ZM6.70312 27.4219C6.03098 27.4219 5.48438 26.8753 5.48438 26.2031C5.48438 25.531 6.03098 24.9844 6.70312 24.9844C7.37527 24.9844 7.92188 25.531 7.92188 26.2031C7.92188 26.8753 7.37527 27.4219 6.70312 27.4219Z" fill="#435EBE"/>
<path d="M32.2969 23.7656C30.9526 23.7656 29.8594 24.8588 29.8594 26.2031C29.8594 27.5474 30.9526 28.6406 32.2969 28.6406C33.6412 28.6406 34.7344 27.5474 34.7344 26.2031C34.7344 24.8588 33.6412 23.7656 32.2969 23.7656ZM32.2969 27.4219C31.6247 27.4219 31.0781 26.8753 31.0781 26.2031C31.0781 25.531 31.6247 24.9844 32.2969 24.9844C32.969 24.9844 33.5156 25.531 33.5156 26.2031C33.5156 26.8753 32.969 27.4219 32.2969 27.4219Z" fill="#435EBE"/>
<path d="M26.2031 24.375H12.7969C12.4599 24.375 12.1875 24.6474 12.1875 24.9844C12.1875 25.3214 12.4599 25.5938 12.7969 25.5938H26.2031C26.5401 25.5938 26.8125 25.3214 26.8125 24.9844C26.8125 24.6474 26.5401 24.375 26.2031 24.375Z" fill="#435EBE"/>
<path d="M26.2031 26.8125H12.7969C12.4599 26.8125 12.1875 27.0849 12.1875 27.4219C12.1875 27.7589 12.4599 28.0312 12.7969 28.0312H26.2031C26.5401 28.0312 26.8125 27.7589 26.8125 27.4219C26.8125 27.0849 26.5401 26.8125 26.2031 26.8125Z" fill="#435EBE"/>
<path d="M26.0245 9.31978C25.7863 9.08152 25.4012 9.08152 25.1629 9.31978C24.9246 9.55805 24.9246 9.94317 25.1629 10.1814L26.3816 11.4002C26.5005 11.519 26.6565 11.5787 26.8125 11.5787C26.9685 11.5787 27.1245 11.519 27.2433 11.4002C27.4816 11.1619 27.4816 10.7768 27.2433 10.5385L26.0245 9.31978Z" fill="#435EBE"/>
<path d="M22.9777 9.31917C22.7395 9.08091 22.3543 9.08091 22.1161 9.31917C21.8778 9.55744 21.8778 9.94256 22.1161 10.1808L26.3817 14.4465C26.5005 14.5653 26.6565 14.625 26.8125 14.625C26.9685 14.625 27.1245 14.5653 27.2434 14.4465C27.4816 14.2082 27.4816 13.8231 27.2434 13.5848L22.9777 9.31917Z" fill="#435EBE"/>
</svg>
