<svg width="32" height="33" viewBox="0 0 32 33" fill="none" xmlns="http://www.w3.org/2000/svg">
<path fill-rule="evenodd" clip-rule="evenodd" d="M6.96878 8.375C6.96878 5.45824 9.33329 3.09375 12.25 3.09375C15.1667 3.09375 17.5313 5.45824 17.5313 8.375C17.5313 11.2918 15.1667 13.6562 12.25 13.6562C9.33329 13.6562 6.96878 11.2918 6.96878 8.375ZM12.25 0.65625C7.98709 0.65625 4.53128 4.11206 4.53128 8.375C4.53128 12.6379 7.98709 16.0938 12.25 16.0938C16.513 16.0938 19.9688 12.6379 19.9688 8.375C19.9688 4.11206 16.513 0.65625 12.25 0.65625ZM3.00945 26.9039C4.61321 23.3994 8.14905 20.9688 12.25 20.9688C16.351 20.9688 19.8869 23.3994 21.4906 26.9039C21.8283 27.642 21.6749 28.3183 21.1865 28.877C20.6674 29.4711 19.7679 29.9062 18.75 29.9062H5.75003C4.73213 29.9062 3.83279 29.4711 3.31349 28.877C2.82523 28.3183 2.67175 27.642 3.00945 26.9039ZM12.25 18.5312C7.16063 18.5312 2.7789 21.5502 0.793017 25.8896C0.0103524 27.5999 0.435095 29.2876 1.47823 30.481C2.49031 31.639 4.07555 32.3438 5.75003 32.3438H18.75C20.4246 32.3438 22.0098 31.639 23.0218 30.481C24.0651 29.2876 24.4897 27.5999 23.7071 25.8896C21.7212 21.5502 17.3395 18.5312 12.25 18.5312ZM25.25 10.4062C25.9231 10.4062 26.4688 10.9519 26.4688 11.625V15.2812H30.125C30.7981 15.2812 31.3438 15.8269 31.3438 16.5C31.3438 17.1731 30.7981 17.7188 30.125 17.7188H26.4688V21.375C26.4688 22.0481 25.9231 22.5938 25.25 22.5938C24.5769 22.5938 24.0313 22.0481 24.0313 21.375V17.7188H20.375C19.7019 17.7188 19.1563 17.1731 19.1563 16.5C19.1563 15.8269 19.7019 15.2812 20.375 15.2812H24.0313V11.625C24.0313 10.9519 24.5769 10.4062 25.25 10.4062Z" fill="#435EBE"/>
</svg>
