<svg width="18" height="18" viewBox="0 0 18 18" fill="none" xmlns="http://www.w3.org/2000/svg">
<path d="M14 0.25H4C1.92893 0.25 0.25 1.92893 0.25 4V14C0.25 16.0711 1.92893 17.75 4 17.75H14C16.0711 17.75 17.75 16.0711 17.75 14V4C17.75 1.92893 16.0711 0.25 14 0.25Z" fill="url(#paint0_radial_51_16)"/>
<path d="M14 0.25H4C1.92893 0.25 0.25 1.92893 0.25 4V14C0.25 16.0711 1.92893 17.75 4 17.75H14C16.0711 17.75 17.75 16.0711 17.75 14V4C17.75 1.92893 16.0711 0.25 14 0.25Z" fill="url(#paint1_radial_51_16)"/>
<path d="M14 0.25H4C1.92893 0.25 0.25 1.92893 0.25 4V14C0.25 16.0711 1.92893 17.75 4 17.75H14C16.0711 17.75 17.75 16.0711 17.75 14V4C17.75 1.92893 16.0711 0.25 14 0.25Z" fill="url(#paint2_radial_51_16)"/>
<path d="M13.375 5.5625C13.375 6.08025 12.9553 6.5 12.4375 6.5C11.9197 6.5 11.5 6.08025 11.5 5.5625C11.5 5.04473 11.9197 4.625 12.4375 4.625C12.9553 4.625 13.375 5.04473 13.375 5.5625Z" fill="white"/>
<path fill-rule="evenodd" clip-rule="evenodd" d="M9 12.125C10.7259 12.125 12.125 10.7259 12.125 9C12.125 7.27412 10.7259 5.875 9 5.875C7.27412 5.875 5.875 7.27412 5.875 9C5.875 10.7259 7.27412 12.125 9 12.125ZM9 10.875C10.0356 10.875 10.875 10.0356 10.875 9C10.875 7.96444 10.0356 7.125 9 7.125C7.96444 7.125 7.125 7.96444 7.125 9C7.125 10.0356 7.96444 10.875 9 10.875Z" fill="white"/>
<path fill-rule="evenodd" clip-rule="evenodd" d="M2.75 8.75C2.75 6.64981 2.75 5.59969 3.15873 4.79754C3.51825 4.09193 4.09193 3.51825 4.79754 3.15873C5.59969 2.75 6.64981 2.75 8.75 2.75H9.25C11.3502 2.75 12.4003 2.75 13.2024 3.15873C13.9081 3.51825 14.4818 4.09193 14.8413 4.79754C15.25 5.59969 15.25 6.64981 15.25 8.75V9.25C15.25 11.3502 15.25 12.4003 14.8413 13.2024C14.4818 13.9081 13.9081 14.4818 13.2024 14.8413C12.4003 15.25 11.3502 15.25 9.25 15.25H8.75C6.64981 15.25 5.59969 15.25 4.79754 14.8413C4.09193 14.4818 3.51825 13.9081 3.15873 13.2024C2.75 12.4003 2.75 11.3502 2.75 9.25V8.75ZM8.75 4H9.25C10.3207 4 11.0486 4.00098 11.6112 4.04694C12.1593 4.09171 12.4395 4.17287 12.635 4.27248C13.1054 4.51217 13.4878 4.89462 13.7275 5.365C13.8271 5.5605 13.9083 5.84075 13.9531 6.38881C13.999 6.95144 14 7.67925 14 8.75V9.25C14 10.3207 13.999 11.0486 13.9531 11.6112C13.9083 12.1593 13.8271 12.4395 13.7275 12.635C13.4878 13.1054 13.1054 13.4878 12.635 13.7275C12.4395 13.8271 12.1593 13.9083 11.6112 13.9531C11.0486 13.999 10.3207 14 9.25 14H8.75C7.67925 14 6.95144 13.999 6.38881 13.9531C5.84075 13.9083 5.5605 13.8271 5.365 13.7275C4.89462 13.4878 4.51217 13.1054 4.27248 12.635C4.17287 12.4395 4.09171 12.1593 4.04694 11.6112C4.00098 11.0486 4 10.3207 4 9.25V8.75C4 7.67925 4.00098 6.95144 4.04694 6.38881C4.09171 5.84075 4.17287 5.5605 4.27248 5.365C4.51217 4.89462 4.89462 4.51217 5.365 4.27248C5.5605 4.17287 5.84075 4.09171 6.38881 4.04694C6.95144 4.00098 7.67925 4 8.75 4Z" fill="white"/>
<defs>
<radialGradient id="paint0_radial_51_16" cx="0" cy="0" r="1" gradientUnits="userSpaceOnUse" gradientTransform="translate(6.5 13.375) rotate(-55.3758) scale(15.9498)">
<stop stop-color="#B13589"/>
<stop offset="0.79309" stop-color="#C62F94"/>
<stop offset="1" stop-color="#8A3AC8"/>
</radialGradient>
<radialGradient id="paint1_radial_51_16" cx="0" cy="0" r="1" gradientUnits="userSpaceOnUse" gradientTransform="translate(5.875 18.375) rotate(-65.1363) scale(14.1214)">
<stop stop-color="#E0E8B7"/>
<stop offset="0.444662" stop-color="#FB8A2E"/>
<stop offset="0.71474" stop-color="#E2425C"/>
<stop offset="1" stop-color="#E2425C" stop-opacity="0"/>
</radialGradient>
<radialGradient id="paint2_radial_51_16" cx="0" cy="0" r="1" gradientUnits="userSpaceOnUse" gradientTransform="translate(-0.6875 0.875) rotate(-8.1301) scale(24.3068 5.19897)">
<stop offset="0.156701" stop-color="#406ADC"/>
<stop offset="0.467799" stop-color="#6A45BE"/>
<stop offset="1" stop-color="#6A45BE" stop-opacity="0"/>
</radialGradient>
</defs>
</svg>
